<svg width="59" height="26" xmlns="http://www.w3.org/2000/svg" version="1.1">
 <g id="Layer_1">
  <title>Layer 1</title>
  <text fill="#000000" stroke-width="0" x="-1.12417" y="20.12276" id="svg_1" font-size="24" font-family="'Ibarra Real Nova'" text-anchor="start" xml:space="preserve" stroke="#000" transform="matrix(0.904288 0 0 1.01239 5.79837 0.925298)" font-weight="bold" font-style="normal">SRB</text>
  <path fill="#000000" stroke="#000" stroke-width="0" d="m25.41352,49.75521c-0.00002,-0.01104 -0.00896,-0.01999 -0.02,-0.02l0,-0.00001l-0.06129,0c-0.00253,-0.00811 -0.01006,-0.01404 -0.01903,-0.01406l-0.01438,0c-0.01104,0.00001 -0.01999,0.00896 -0.02001,0.02l0,0.07094c0.00002,0.01103 0.00897,0.01998 0.02001,0.02l0.09469,0c0.01103,-0.00002 0.01998,-0.00897 0.02,-0.02l0,-0.05688l-0.00001,0l0.00002,0.00001zm-0.11468,-0.02407l0.01438,0c0.00523,-0.00002 0.00959,0.00417 0.00992,0.00938l0.00029,0.00469l0.07011,0c0.00547,0.00001 0.00999,0.00453 0.01,0.01l0,0.00248c-0.00296,-0.00173 -0.00634,-0.00279 -0.01,-0.00279l-0.09469,0c-0.00366,0.00001 -0.00705,0.00107 -0.01,0.0028l0,-0.01655c0.00002,-0.00547 0.00454,-0.00999 0.01001,-0.01l-0.00002,-0.00001zm0.09469,0.09094l-0.09469,0c-0.00547,-0.00001 -0.00999,-0.00454 -0.01001,-0.01l0,-0.03719l0.00001,0c0.00001,-0.00548 0.00453,-0.01 0.01,-0.01001l0.09469,0c0.00547,0.00001 0.00996,0.00451 0.01,0.00996l0,0.03724c-0.00002,0.00548 -0.00454,0.01 -0.01001,0.01001l0.00001,-0.00001z" id="svg_3"/>
  <path fill="#000000" stroke="#000" stroke-width="0" d="m21.06646,56.03429c-0.00002,-0.01104 -0.00896,-0.01999 -0.02,-0.02l0,-0.00001l-0.06129,0c-0.00253,-0.00811 -0.01006,-0.01404 -0.01903,-0.01406l-0.01438,0c-0.01104,0.00001 -0.01999,0.00896 -0.02001,0.02l0,0.07094c0.00002,0.01103 0.00897,0.01998 0.02001,0.02l0.09469,0c0.01103,-0.00002 0.01998,-0.00897 0.02,-0.02l0,-0.05688l-0.00001,0l0.00002,0.00001zm-0.11468,-0.02407l0.01438,0c0.00523,-0.00002 0.00959,0.00417 0.00992,0.00938l0.00029,0.00469l0.07011,0c0.00547,0.00001 0.00999,0.00453 0.01,0.01l0,0.00248c-0.00296,-0.00173 -0.00634,-0.00279 -0.01,-0.00279l-0.09469,0c-0.00366,0.00001 -0.00705,0.00107 -0.01,0.0028l0,-0.01655c0.00002,-0.00547 0.00454,-0.00999 0.01001,-0.01l-0.00002,-0.00001zm0.09469,0.09094l-0.09469,0c-0.00547,-0.00001 -0.00999,-0.00454 -0.01001,-0.01l0,-0.03719l0.00001,0c0.00001,-0.00548 0.00453,-0.01 0.01,-0.01001l0.09469,0c0.00547,0.00001 0.00996,0.00451 0.01,0.00996l0,0.03724c-0.00002,0.00548 -0.00454,0.01 -0.01001,0.01001l0.00001,-0.00001z" id="svg_4"/>
  <path fill="#000000" stroke="#000" stroke-width="0" d="m36.52267,51.52623c-0.00002,-0.01104 -0.00896,-0.01999 -0.02,-0.02l0,-0.00001l-0.06129,0c-0.00253,-0.00811 -0.01006,-0.01404 -0.01903,-0.01406l-0.01438,0c-0.01104,0.00001 -0.01999,0.00896 -0.02001,0.02l0,0.07094c0.00002,0.01103 0.00897,0.01998 0.02001,0.02l0.09469,0c0.01103,-0.00002 0.01998,-0.00897 0.02,-0.02l0,-0.05688l-0.00001,0l0.00002,0.00001zm-0.11468,-0.02407l0.01438,0c0.00523,-0.00002 0.00959,0.00417 0.00992,0.00938l0.00029,0.00469l0.07011,0c0.00547,0.00001 0.00999,0.00453 0.01,0.01l0,0.00248c-0.00296,-0.00173 -0.00634,-0.00279 -0.01,-0.00279l-0.09469,0c-0.00366,0.00001 -0.00705,0.00107 -0.01,0.0028l0,-0.01655c0.00002,-0.00547 0.00454,-0.00999 0.01001,-0.01l-0.00002,-0.00001zm0.09469,0.09094l-0.09469,0c-0.00547,-0.00001 -0.00999,-0.00454 -0.01001,-0.01l0,-0.03719l0.00001,0c0.00001,-0.00548 0.00453,-0.01 0.01,-0.01001l0.09469,0c0.00547,0.00001 0.00996,0.00451 0.01,0.00996l0,0.03724c-0.00002,0.00548 -0.00454,0.01 -0.01001,0.01001l0.00001,-0.00001z" id="svg_5"/>
  <path fill="#000000" stroke="#000" stroke-width="0" d="m-23.18892,75.03503c-0.00002,-0.01104 -0.00896,-0.01999 -0.02,-0.02l0,-0.00001l-0.06129,0c-0.00253,-0.00811 -0.01006,-0.01404 -0.01903,-0.01406l-0.01438,0c-0.01104,0.00001 -0.01999,0.00896 -0.02001,0.02l0,0.07094c0.00002,0.01103 0.00897,0.01998 0.02001,0.02l0.09469,0c0.01103,-0.00002 0.01998,-0.00897 0.02,-0.02l0,-0.05688l-0.00001,0l0.00002,0.00001zm-0.11468,-0.02407l0.01438,0c0.00523,-0.00002 0.00959,0.00417 0.00992,0.00938l0.00029,0.00469l0.07011,0c0.00547,0.00001 0.00999,0.00453 0.01,0.01l0,0.00248c-0.00296,-0.00173 -0.00634,-0.00279 -0.01,-0.00279l-0.09469,0c-0.00366,0.00001 -0.00705,0.00107 -0.01,0.0028l0,-0.01655c0.00002,-0.00547 0.00454,-0.00999 0.01001,-0.01l-0.00002,-0.00001zm0.09469,0.09094l-0.09469,0c-0.00547,-0.00001 -0.00999,-0.00454 -0.01001,-0.01l0,-0.03719l0.00001,0c0.00001,-0.00548 0.00453,-0.01 0.01,-0.01001l0.09469,0c0.00547,0.00001 0.00996,0.00451 0.01,0.00996l0,0.03724c-0.00002,0.00548 -0.00454,0.01 -0.01001,0.01001l0.00001,-0.00001z" id="svg_6"/>
  <path fill="#000000" stroke="#000" stroke-width="0" d="m39.75663,64.33607c-0.00002,-0.01104 -0.00896,-0.01999 -0.02,-0.02l0,-0.00001l-0.06129,0c-0.00253,-0.00811 -0.01006,-0.01404 -0.01903,-0.01406l-0.01438,0c-0.01104,0.00001 -0.01999,0.00896 -0.02001,0.02l0,0.07094c0.00002,0.01103 0.00897,0.01998 0.02001,0.02l0.09469,0c0.01103,-0.00002 0.01998,-0.00897 0.02,-0.02l0,-0.05688l-0.00001,0l0.00002,0.00001zm-0.11468,-0.02407l0.01438,0c0.00523,-0.00002 0.00959,0.00417 0.00992,0.00938l0.00029,0.00469l0.07011,0c0.00547,0.00001 0.00999,0.00453 0.01,0.01l0,0.00248c-0.00296,-0.00173 -0.00634,-0.00279 -0.01,-0.00279l-0.09469,0c-0.00366,0.00001 -0.00705,0.00107 -0.01,0.0028l0,-0.01655c0.00002,-0.00547 0.00454,-0.00999 0.01001,-0.01l-0.00002,-0.00001zm0.09469,0.09094l-0.09469,0c-0.00547,-0.00001 -0.00999,-0.00454 -0.01001,-0.01l0,-0.03719l0.00001,0c0.00001,-0.00548 0.00453,-0.01 0.01,-0.01001l0.09469,0c0.00547,0.00001 0.00996,0.00451 0.01,0.00996l0,0.03724c-0.00002,0.00548 -0.00454,0.01 -0.01001,0.01001l0.00001,-0.00001z" id="svg_7"/>
  <path fill="#000000" stroke="#000" stroke-width="0" d="m50.45559,59.16491c-0.00002,-0.01104 -0.00896,-0.01999 -0.02,-0.02l0,-0.00001l-0.06129,0c-0.00253,-0.00811 -0.01006,-0.01404 -0.01903,-0.01406l-0.01438,0c-0.01104,0.00001 -0.01999,0.00896 -0.02001,0.02l0,0.07094c0.00002,0.01103 0.00897,0.01998 0.02001,0.02l0.09469,0c0.01103,-0.00002 0.01998,-0.00897 0.02,-0.02l0,-0.05688l-0.00001,0l0.00002,0.00001zm-0.11468,-0.02407l0.01438,0c0.00523,-0.00002 0.00959,0.00417 0.00992,0.00938l0.00029,0.00469l0.07011,0c0.00547,0.00001 0.00999,0.00453 0.01,0.01l0,0.00248c-0.00296,-0.00173 -0.00634,-0.00279 -0.01,-0.00279l-0.09469,0c-0.00366,0.00001 -0.00705,0.00107 -0.01,0.0028l0,-0.01655c0.00002,-0.00547 0.00454,-0.00999 0.01001,-0.01l-0.00002,-0.00001zm0.09469,0.09094l-0.09469,0c-0.00547,-0.00001 -0.00999,-0.00454 -0.01001,-0.01l0,-0.03719l0.00001,0c0.00001,-0.00548 0.00453,-0.01 0.01,-0.01001l0.09469,0c0.00547,0.00001 0.00996,0.00451 0.01,0.00996l0,0.03724c-0.00002,0.00548 -0.00454,0.01 -0.01001,0.01001l0.00001,-0.00001z" id="svg_8"/>
 </g>

</svg>